<svg width="175" height="175" viewBox="0 0 175 175" fill="none" xmlns="http://www.w3.org/2000/svg">
<path d="M96.6423 94.9507L101.742 79.0577C102.82 75.7006 106.914 74.4475 109.686 76.6266L126.86 90.1303C130.373 92.8923 129.955 98.26 125.596 99.2428C124.109 99.5779 122.539 99.7779 120.981 99.7223C114.543 99.4923 109.254 100.182 102.356 101.562C98.5772 102.192 95.4718 98.5984 96.6423 94.9507Z" fill="#FF4B7D"/>
<path d="M97.3959 38.2504L43.4914 90.796C40.2391 93.9663 43.1035 99.6753 47.6181 99.1778C53.5635 98.5226 60.0657 98.089 64.6451 98.5727C70.1149 99.1505 77.2958 100.912 82.2162 102.245C85.366 103.098 88.6804 101.373 89.6916 98.2701L107.253 44.384C109.189 38.4456 101.868 33.8906 97.3959 38.2504Z" fill="#F7005A"/>
<path d="M139.607 64.5409C139.607 68.9857 136.004 72.589 131.559 72.589C127.114 72.589 123.511 68.9857 123.511 64.5409C123.511 60.0961 127.114 56.4929 131.559 56.4929C136.004 56.4929 139.607 60.0961 139.607 64.5409Z" fill="#FFA534"/>
<path d="M114.701 109.528C123.287 108.965 131.316 110.025 140.761 112.408L141.68 112.643L141.817 112.68C144.685 113.501 146.391 116.463 145.639 119.368C144.876 122.319 141.865 124.091 138.914 123.328C129.792 120.967 122.753 120.061 115.424 120.542C108.023 121.028 100.007 122.947 88.9372 126.666L87.1529 127.265L85.3744 126.649C75.1573 123.112 67.5552 121.237 60.17 120.682C52.8088 120.129 45.3536 120.865 35.4151 122.929C32.431 123.549 29.5095 121.632 28.8896 118.648C28.2698 115.663 30.1864 112.742 33.1705 112.122C43.6814 109.939 52.2415 109.018 60.9972 109.676C69.2369 110.295 77.3742 112.292 87.2054 115.611C97.8029 112.131 106.372 110.075 114.701 109.528Z" fill="#4A4E53"/>
</svg>
